<svg width="23" height="18" viewBox="0 0 23 18" fill="none" xmlns="http://www.w3.org/2000/svg">
<path fill-rule="evenodd" clip-rule="evenodd" d="M9.44435 0.25H13.5564C15.3944 0.25 16.8504 0.25 17.9894 0.403C19.1614 0.561 20.1103 0.893 20.8594 1.641C21.5373 2.319 21.8744 3.163 22.0494 4.191C22.1764 4.941 22.2224 5.83 22.2394 6.874C22.2524 6.95001 22.2538 7.02758 22.2434 7.104C22.2464 7.39 22.2484 7.688 22.2494 7.998C22.2499 8.19691 22.1714 8.38789 22.0311 8.52892C21.9616 8.59875 21.8791 8.65421 21.7882 8.69214C21.6973 8.73008 21.5998 8.74974 21.5014 8.75C21.3024 8.75053 21.1115 8.67202 20.9704 8.53174C20.8294 8.39147 20.7499 8.20091 20.7494 8.002V7.75H2.25135C2.24935 8.138 2.24935 8.554 2.24935 9C2.24935 10.907 2.25135 12.261 2.38935 13.29C2.52435 14.295 2.77835 14.875 3.20135 15.298C3.62435 15.721 4.20435 15.975 5.21035 16.11C6.23835 16.248 7.59235 16.25 9.49935 16.25H10.9994C11.1983 16.25 11.389 16.329 11.5297 16.4697C11.6703 16.6103 11.7494 16.8011 11.7494 17C11.7494 17.1989 11.6703 17.3897 11.5297 17.5303C11.389 17.671 11.1983 17.75 10.9994 17.75H9.44435C7.60635 17.75 6.15035 17.75 5.01135 17.597C3.83935 17.439 2.89035 17.107 2.14135 16.359C1.39335 15.61 1.06135 14.661 0.903351 13.489C0.750351 12.349 0.750351 10.894 0.750351 9.056V8.944C0.750351 8.282 0.750351 7.67 0.757351 7.104C0.74663 7.02763 0.747641 6.95007 0.760351 6.874C0.776351 5.967 0.813351 5.184 0.903351 4.511C1.06135 3.339 1.39335 2.39 2.14135 1.641C2.89035 0.893 3.83935 0.561 5.01135 0.403C6.15135 0.25 7.60635 0.25 9.44435 0.25ZM2.27635 6.25H20.7244C20.7004 5.535 20.6544 4.944 20.5704 4.442C20.4274 3.6 20.1834 3.087 19.7984 2.702C19.3754 2.279 18.7954 2.025 17.7894 1.89C16.7624 1.752 15.4074 1.75 13.5004 1.75H9.50035C7.59335 1.75 6.23935 1.752 5.21035 1.89C4.20535 2.025 3.62535 2.279 3.20235 2.702C2.77935 3.125 2.52535 3.705 2.39035 4.711C2.33035 5.156 2.29635 5.663 2.27635 6.25ZM15.0004 10.25C15.1993 10.25 15.39 10.329 15.5307 10.4697C15.6713 10.6103 15.7504 10.8011 15.7504 11V15.19L16.4704 14.47C16.539 14.3963 16.6218 14.3372 16.7138 14.2962C16.8058 14.2552 16.9051 14.2332 17.0058 14.2314C17.1065 14.2296 17.2066 14.2482 17.2999 14.2859C17.3933 14.3236 17.4782 14.3797 17.5494 14.451C17.6206 14.5222 17.6768 14.607 17.7145 14.7004C17.7522 14.7938 17.7707 14.8938 17.7689 14.9945C17.7672 15.0952 17.7451 15.1945 17.7041 15.2865C17.6631 15.3785 17.604 15.4613 17.5304 15.53L15.5304 17.53C15.3897 17.6705 15.1991 17.7493 15.0004 17.7493C14.8016 17.7493 14.611 17.6705 14.4704 17.53L12.4704 15.53C12.3967 15.4613 12.3376 15.3785 12.2966 15.2865C12.2556 15.1945 12.2335 15.0952 12.2318 14.9945C12.23 14.8938 12.2485 14.7938 12.2862 14.7004C12.3239 14.607 12.3801 14.5222 12.4513 14.451C12.5225 14.3797 12.6074 14.3236 12.7008 14.2859C12.7941 14.2482 12.8942 14.2296 12.9949 14.2314C13.0956 14.2332 13.1949 14.2552 13.2869 14.2962C13.3789 14.3372 13.4617 14.3963 13.5304 14.47L14.2504 15.19V11C14.2504 10.8011 14.3294 10.6103 14.47 10.4697C14.6107 10.329 14.8014 10.25 15.0004 10.25ZM18.9704 10.47C19.111 10.3295 19.3016 10.2507 19.5004 10.2507C19.6991 10.2507 19.8897 10.3295 20.0304 10.47L22.0304 12.47C22.104 12.5387 22.1631 12.6215 22.2041 12.7135C22.2451 12.8055 22.2672 12.9048 22.2689 13.0055C22.2707 13.1062 22.2522 13.2062 22.2145 13.2996C22.1768 13.393 22.1206 13.4778 22.0494 13.549C21.9782 13.6203 21.8933 13.6764 21.7999 13.7141C21.7066 13.7518 21.6065 13.7704 21.5058 13.7686C21.4051 13.7668 21.3058 13.7448 21.2138 13.7038C21.1218 13.6628 21.039 13.6037 20.9704 13.53L20.2504 12.81V17C20.2504 17.1989 20.1713 17.3897 20.0307 17.5303C19.89 17.671 19.6993 17.75 19.5004 17.75C19.3014 17.75 19.1107 17.671 18.97 17.5303C18.8294 17.3897 18.7504 17.1989 18.7504 17V12.81L18.0304 13.53C17.9617 13.6037 17.8789 13.6628 17.7869 13.7038C17.6949 13.7448 17.5956 13.7668 17.4949 13.7686C17.3942 13.7704 17.2941 13.7518 17.2008 13.7141C17.1074 13.6764 17.0225 13.6203 16.9513 13.549C16.8801 13.4778 16.8239 13.393 16.7862 13.2996C16.7485 13.2062 16.73 13.1062 16.7318 13.0055C16.7335 12.9048 16.7556 12.8055 16.7966 12.7135C16.8376 12.6215 16.8967 12.5387 16.9704 12.47L18.9704 10.47ZM4.75035 13C4.75035 12.8011 4.82937 12.6103 4.97002 12.4697C5.11067 12.329 5.30144 12.25 5.50035 12.25H9.50035C9.69926 12.25 9.89003 12.329 10.0307 12.4697C10.1713 12.6103 10.2504 12.8011 10.2504 13C10.2504 13.1989 10.1713 13.3897 10.0307 13.5303C9.89003 13.671 9.69926 13.75 9.50035 13.75H5.50035C5.30144 13.75 5.11067 13.671 4.97002 13.5303C4.82937 13.3897 4.75035 13.1989 4.75035 13Z" fill="#7B7579"/>
</svg>
